<svg xmlns="http://www.w3.org/2000/svg" enable-background="new 0 0 135 135" viewBox="0 0 135 135"><rect width="128" height="3.16" x="3.5" y="108.357" fill="#7a8490"/><rect width="21.282" height="60.03" x="96.327" y="44.34" fill="#8b684d"/><rect width="8.184" height="13.431" x="105.551" y="50.667" fill="#54433b"/><path fill="#cea97c" d="M114.1172104,64.4789886h-8.9475403V50.2849045h8.9475403V64.4789886z M105.9331284,63.7155342
							h7.4206238V51.0483627h-7.4206238V63.7155342z"/><rect width="8.184" height=".763" x="105.551" y="53.67" fill="#cea97c"/><rect width=".763" height="10.046" x="109.262" y="54.052" fill="#cea97c"/><rect width="8.184" height="13.431" x="105.551" y="68.677" fill="#54433b"/><path fill="#cea97c" d="M114.1172104,82.4893494h-8.9475403V68.2952576h8.9475403V82.4893494z M105.9331284,81.7258911
							h7.4206238V69.0587158h-7.4206238V81.7258911z"/><rect width="8.184" height=".763" x="105.551" y="71.68" fill="#cea97c"/><rect width=".763" height="10.046" x="109.262" y="72.062" fill="#cea97c"/><rect width="8.184" height="13.431" x="105.551" y="86.687" fill="#54433b"/><path fill="#cea97c" d="M114.1172104,100.4997025h-8.9475403V86.3056183h8.9475403V100.4997025z M105.9331284,99.7362442
							h7.4206238V87.0690765h-7.4206238V99.7362442z"/><rect width="8.184" height=".763" x="105.551" y="89.69" fill="#cea97c"/><rect width=".763" height="10.046" x="109.262" y="90.072" fill="#cea97c"/><rect width="21.282" height="60.03" x="17.391" y="44.34" fill="#8b684d"/><rect width="8.184" height="13.431" x="21.264" y="50.667" fill="#54433b"/><path fill="#cea97c" d="M20.8827896,50.2849045h8.9475403v14.1940842h-8.9475403V50.2849045z M29.0668697,51.0483627h-7.42062
							v12.6671715h7.42062V51.0483627z"/><rect width="8.184" height=".763" x="21.265" y="53.67" fill="#cea97c"/><rect width=".763" height="10.046" x="24.975" y="54.052" fill="#cea97c"/><rect width="8.184" height="13.431" x="21.264" y="68.677" fill="#54433b"/><path fill="#cea97c" d="M20.8827896,68.2952576h8.9475403v14.1940918h-8.9475403V68.2952576z M29.0668697,69.0587158h-7.42062
							v12.6671753h7.42062V69.0587158z"/><rect width="8.184" height=".763" x="21.265" y="71.68" fill="#cea97c"/><rect width=".763" height="10.046" x="24.975" y="72.062" fill="#cea97c"/><rect width="8.184" height="13.431" x="21.264" y="86.687" fill="#54433b"/><path fill="#cea97c" d="M20.8827896,86.3056183h8.9475403v14.1940842h-8.9475403V86.3056183z M29.0668697,87.0690765h-7.42062
							v12.6671677h7.42062V87.0690765z"/><rect width="8.184" height=".763" x="21.265" y="89.69" fill="#cea97c"/><rect width=".763" height="10.046" x="24.975" y="90.072" fill="#cea97c"/><rect width="15.65" height="48.647" x="59.676" y="55.722" fill="#8d694f"/><path fill="#54433b" d="M76.2883911,88.8342133v15.4183731H58.7125549V88.8342133
				c0-4.8534317,3.9344826-8.7879105,8.7879105-8.7879105h0.0000153
				C72.3539124,80.0463028,76.2883911,83.9807816,76.2883911,88.8342133z"/><path fill="#dbb989" d="M77.016922,104.2525864h-1.4575043V88.8340225c0-4.4436646-3.6152802-8.0589447-8.0589447-8.0589447
					s-8.0589447,3.6152802-8.0589447,8.0589447v15.4185638h-1.4575005V88.8340225
					c0-5.2473755,4.2690697-9.5164413,9.5164452-9.5164413s9.516449,4.2690659,9.516449,9.5164413V104.2525864z"/><rect width="2.01" height="48.647" x="31.312" y="55.722" fill="#2c2c34" opacity=".08"/><rect width="2.01" height="48.647" x="101.656" y="55.722" fill="#2c2c34" opacity=".08"/><rect width="103.065" height="2.338" x="15.968" y="42.002" fill="#ecd0a0"/><rect width="103.065" height="2.338" x="15.968" y="32.807" fill="#ecd0a0"/><rect width="100.218" height="6.857" x="17.391" y="35.145" fill="#dbb989"/><rect width="15.65" height="48.647" x="80.678" y="55.722" fill="#8d694f"/><rect width="15.65" height="48.647" x="38.674" y="55.722" fill="#8d694f"/><rect width="15.65" height="1.91" x="59.676" y="55.722" fill="#2c2c34" opacity=".08"/><rect width="15.65" height="1.91" x="80.678" y="55.722" fill="#2c2c34" opacity=".08"/><rect width="15.65" height="1.91" x="38.674" y="55.722" fill="#2c2c34" opacity=".08"/><rect width="15.65" height="1.91" x="59.676" y="102.46" fill="#2c2c34" opacity=".08"/><rect width="15.65" height="1.91" x="80.678" y="102.46" fill="#2c2c34" opacity=".08"/><rect width="15.65" height="1.91" x="38.674" y="102.46" fill="#2c2c34" opacity=".08"/><rect width=".983" height="48.647" x="38.674" y="55.722" fill="#2c2c34" opacity=".08"/><rect width=".983" height="48.647" x="53.34" y="55.722" fill="#2c2c34" opacity=".08"/><rect width=".983" height="48.647" x="59.568" y="55.722" fill="#2c2c34" opacity=".08"/><rect width=".983" height="48.647" x="74.235" y="55.722" fill="#2c2c34" opacity=".08"/><rect width=".983" height="48.647" x="80.463" y="55.722" fill="#2c2c34" opacity=".08"/><rect width=".983" height="48.647" x="95.129" y="55.722" fill="#2c2c34" opacity=".08"/><rect width="107.845" height="3.991" x="13.578" y="104.368" fill="#ecd0a0"/><rect width="74.922" height="3.878" x="30.039" y="51.844" fill="#cea97c"/><rect width="7.318" height="3.82" x="32.339" y="100.549" fill="#dbb989"/><rect width="7.318" height="3.82" x="32.339" y="55.722" fill="#dbb989"/><rect width="5.352" height="41.008" x="33.322" y="59.542" fill="#cea97c"/><rect width="7.318" height="3.82" x="53.34" y="100.549" fill="#dbb989"/><rect width="7.318" height="3.82" x="53.34" y="55.722" fill="#dbb989"/><rect width="5.352" height="41.008" x="54.323" y="59.542" fill="#cea97c"/><rect width="7.318" height="3.82" x="74.342" y="100.549" fill="#dbb989"/><rect width="7.318" height="3.82" x="74.342" y="55.722" fill="#dbb989"/><rect width="5.352" height="41.008" x="75.325" y="59.542" fill="#cea97c"/><rect width="7.318" height="3.82" x="95.343" y="100.549" fill="#dbb989"/><rect width="7.318" height="3.82" x="95.343" y="55.722" fill="#dbb989"/><rect width="5.352" height="41.008" x="96.326" y="59.542" fill="#cea97c"/><rect width="79.071" height="5.034" x="27.858" y="46.807" fill="#dbb989"/><polygon fill="#cea97c" points="67.393 23.483 102.211 46.807 32.575 46.807 67.393 23.483"/><polygon fill="#8d694f" points="39.26 46.807 67.393 27.96 95.526 46.807"/><g><rect width="10.416" height="17.093" x="41.29" y="59.696" fill="#54433b"/><path fill="#dbb989" d="M52.1923828,77.2750854h-11.387661V59.2100677h11.387661V77.2750854z M41.7763863,76.303421h9.4443321
						V60.181736h-9.4443321V76.303421z"/><rect width="10.416" height=".972" x="41.291" y="63.518" fill="#dbb989"/><rect width=".972" height="12.785" x="46.013" y="64.004" fill="#dbb989"/></g><g><rect width="10.416" height="17.093" x="62.292" y="59.696" fill="#54433b"/><path fill="#dbb989" d="M73.1943054,77.2750854h-11.387661V59.2100677h11.387661V77.2750854z M62.7783089,76.303421h9.4443321
						V60.181736h-9.4443321V76.303421z"/><rect width="10.416" height=".972" x="62.292" y="63.518" fill="#dbb989"/><rect width=".972" height="12.785" x="67.015" y="64.004" fill="#dbb989"/></g><g><rect width="10.416" height="17.093" x="83.294" y="59.696" fill="#54433b"/><path fill="#dbb989" d="M94.196228,77.2750854H82.8085632V59.2100677H94.196228V77.2750854z M83.7802277,76.303421h9.4443359
						V60.181736h-9.4443359V76.303421z"/><rect width="10.416" height=".972" x="83.294" y="63.518" fill="#dbb989"/><rect width=".972" height="12.785" x="88.017" y="64.004" fill="#dbb989"/></g><g><rect width="10.416" height="17.093" x="41.29" y="81.321" fill="#54433b"/><path fill="#dbb989" d="M52.1923828,98.9002609h-11.387661V80.8352432h11.387661V98.9002609z M41.7763863,97.9285965h9.4443321
						V81.8069077h-9.4443321V97.9285965z"/><rect width="10.416" height=".972" x="41.291" y="85.143" fill="#dbb989"/><rect width=".972" height="12.785" x="46.013" y="85.629" fill="#dbb989"/></g><g><rect width="10.416" height="17.093" x="83.294" y="81.321" fill="#54433b"/><path fill="#dbb989" d="M94.196228,98.9002609H82.8085632V80.8352432H94.196228V98.9002609z M83.7802277,97.9285965h9.4443359
						V81.8069077h-9.4443359V97.9285965z"/><rect width="10.416" height=".972" x="83.294" y="85.143" fill="#dbb989"/><rect width=".972" height="12.785" x="88.017" y="85.629" fill="#dbb989"/></g><g><path fill="#ecd0a0" d="M55.8906593 42.4066467c.4012642 0 .7294731-.1586761.9842033-.4762344l.523304.5390625c-.4153214.4677162-.9045448.7013588-1.4681053.7013588-.5635567 0-1.0278625-.1778412-1.3922806-.5339508-.3648415-.3558998-.5471573-.8050842-.5471573-1.3477669 0-.5424728.185936-.9952812.5575943-1.3582039.3716583-.3629265.8259544-.5443916 1.3635292-.5443916.6001892 0 1.102623.2285347 1.5075035.6856003l-.5077553.5759087c-.2583504-.3211784-.579319-.4817696-.9631157-.4817696-.3071251 0-.5697365.1005287-.7878304.3011589-.2180977.2006302-.3271446.4711227-.3271446.8112602s.1028709.6131821.3088264.8191376C55.3481865 42.3037758 55.5975914 42.4066467 55.8906593 42.4066467zM58.0420189 39.4702225h.8163719v3.6586533h-.8163719V39.4702225zM61.3081436 40.1769066v2.9519691h-.8165855v-2.9519691h-1.0363846v-.7066841h2.8893547v.7066841H61.3081436zM64.5167618 43.1288757h-.8165855v-1.4444618l-1.2666206-2.2141914h.8845253l.7903862 1.3609734.79039-1.3609734h.8845215l-1.2666168 2.2141914V43.1288757zM69.8296661 39.4702225h.8163681v3.6586533h-.8163681v-1.4393501h-1.4553299v1.4393501h-.8163681v-3.6586533h.8163681v1.5283813h1.4553299V39.4702225zM74.1530457 43.1288757l-.3401413-.7901726h-1.533699l-.3401413.7901726h-.8689728l1.5807724-3.6586533h.7903824l1.58078 3.6586533H74.1530457zM73.0487213 40.5590019l-.4606857 1.0625801h.9160461L73.0487213 40.5590019zM75.4458618 43.1288757v-3.6586533h.8163681v2.9310989h1.559906v.7275543H75.4458618zM78.4191284 43.1288757v-3.6586533h.8163757v2.9310989h1.5598984v.7275543H78.4191284z"/></g></svg>