<svg xmlns="http://www.w3.org/2000/svg" viewBox="0 0 32 32"><circle cx="16" cy="16" r="14" fill="#96d7ff"/><path fill="#6d6daa" d="M16,31A15,15,0,1,1,31,16,15,15,0,0,1,16,31ZM16,3A13,13,0,1,0,29,16,13,13,0,0,0,16,3Z"/><path fill="#91e085" d="M2,16a13.92,13.92,0,0,0,3.42,9.15l1.52-1.22a4.09,4.09,0,0,0,1.52-3.5,1.24,1.24,0,0,1,1.45-1.32A3.5,3.5,0,0,0,14,16.24a5.72,5.72,0,0,0-1.36-4.75L12,10.76a1.25,1.25,0,0,1,.3-1.9,1.24,1.24,0,0,0,.62-1.07,5,5,0,0,0-2.8-4.46A14,14,0,0,0,2,16Z"/><path fill="#6d6daa" d="M5.42,26.15a1,1,0,0,1-.76-.35,15,15,0,0,1,5-23.38,1,1,0,0,1,.86,0,6,6,0,0,1,3.36,5.36,2.25,2.25,0,0,1-1.11,1.93.26.26,0,0,0-.12.17.21.21,0,0,0,.06.2l.64.74A6.68,6.68,0,0,1,15,16.41a4.5,4.5,0,0,1-5.21,3.68.25.25,0,0,0-.21.06.27.27,0,0,0-.08.2,5,5,0,0,1-1.89,4.36L6,25.93A1,1,0,0,1,5.42,26.15Zm4.63-21.7A13,13,0,0,0,5.57,23.74l.74-.59a3.06,3.06,0,0,0,1.15-2.64,2.25,2.25,0,0,1,2.62-2.39A2.44,2.44,0,0,0,12,17.7a2.51,2.51,0,0,0,1-1.63,4.72,4.72,0,0,0-1.13-3.92l-.64-.73A2.24,2.24,0,0,1,11.75,8a.26.26,0,0,0,.13-.21A4,4,0,0,0,10.05,4.45Z"/><path fill="#91e085" d="M19.18,2.38a8.78,8.78,0,0,0,.44,6.19l.45,1a2.21,2.21,0,0,1,.19,1.19,2.21,2.21,0,0,0,1.91,2.45l.95.13A2.21,2.21,0,0,1,25,15.16a2.85,2.85,0,0,0,1.87,2.23l2.89,1A13.56,13.56,0,0,0,30,16,14,14,0,0,0,19.18,2.38Z"/><path fill="#6d6daa" d="M29.78,19.4a1,1,0,0,1-.33-.06l-2.89-1a3.83,3.83,0,0,1-2.53-3,1.21,1.21,0,0,0-1-1L22,14.19a3.21,3.21,0,0,1-2.77-3.56,1.21,1.21,0,0,0-.11-.65l-.45-1a9.78,9.78,0,0,1-.48-6.9,1,1,0,0,1,1.18-.69A14.94,14.94,0,0,1,31,16a15.9,15.9,0,0,1-.23,2.57,1,1,0,0,1-.48.69A1,1,0,0,1,29.78,19.4ZM19.92,3.62a7.85,7.85,0,0,0,.6,4.53l.46,1a3.18,3.18,0,0,1,.27,1.72,1.22,1.22,0,0,0,1.05,1.35l.95.13A3.17,3.17,0,0,1,26,15a1.87,1.87,0,0,0,1.22,1.45l1.73.6c0-.36.05-.71.05-1.05A12.93,12.93,0,0,0,19.92,3.62Z"/><path fill="#91e085" d="M16,30a14,14,0,0,0,11.6-6.16l-.77-1a2.55,2.55,0,0,0-3.92-.24.61.61,0,0,1-1-.13l-.44-.82a1.6,1.6,0,0,0-2.44-.44h0a36.92,36.92,0,0,0-7,8.26A14.34,14.34,0,0,0,16,30Z"/><path fill="#6d6daa" d="M16,31a15.29,15.29,0,0,1-4.23-.61,1,1,0,0,1-.56-1.49,37.21,37.21,0,0,1,7.19-8.48,2.57,2.57,0,0,1,4,.71l.21.38A3.66,3.66,0,0,1,25,20.76a3.59,3.59,0,0,1,2.65,1.44l.77,1a1,1,0,0,1,0,1.16A15,15,0,0,1,16,31Zm-2.34-2.22a13.05,13.05,0,0,0,12.71-4.93L26,23.39a1.58,1.58,0,0,0-1.16-.63,1.53,1.53,0,0,0-1.23.49,1.63,1.63,0,0,1-2.59-.34l-.44-.82a.58.58,0,0,0-.41-.3.56.56,0,0,0-.49.14A35.75,35.75,0,0,0,13.66,28.78Z"/></svg>